<?xml version="1.0" encoding="UTF-8" standalone="no"?>
<svg width="18px" height="18px" viewBox="0 0 18 18" version="1.1" xmlns="http://www.w3.org/2000/svg" xmlns:xlink="http://www.w3.org/1999/xlink" xmlns:sketch="http://www.bohemiancoding.com/sketch/ns">
    <!-- Generator: Sketch 3.5.1 (25234) - http://www.bohemiancoding.com/sketch -->
    <title>Shape</title>
    <desc>Created with Sketch.</desc>
    <defs></defs>
    <g id="Page-1" stroke="none" stroke-width="1" fill="none" fill-rule="evenodd" sketch:type="MSPage">
        <path d="M6.516,11.016 C7.766,11.016 8.82866667,10.5783333 9.704,9.703 C10.5793333,8.82766667 11.017,7.765 11.017,6.515 C11.017,5.265 10.5793333,4.20233333 9.704,3.327 C8.82866667,2.45166667 7.766,2.014 6.516,2.014 C5.266,2.014 4.20333333,2.45166667 3.328,3.327 C2.45266667,4.20233333 2.015,5.265 2.015,6.515 C2.015,7.765 2.45266667,8.82766667 3.328,9.703 C4.20333333,10.5783333 5.266,11.016 6.516,11.016 L6.516,11.016 Z M12.516,11.016 L17.485,15.985 L15.985,17.485 L11.016,12.516 L11.016,11.719 L10.735,11.438 C9.54766667,12.4693333 8.14133333,12.985 6.516,12.985 C4.70333333,12.985 3.16433333,12.36 1.899,11.11 C0.633666667,9.86 0.001,8.32866667 0.001,6.516 C0.001,4.70333333 0.633666667,3.16433333 1.899,1.899 C3.16433333,0.633666667 4.70333333,0.001 6.516,0.001 C8.32866667,0.001 9.86,0.633666667 11.11,1.899 C12.36,3.16433333 12.985,4.70333333 12.985,6.516 C12.985,8.14133333 12.4693333,9.54766667 11.438,10.735 L11.719,11.016 L12.516,11.016 L12.516,11.016 Z" id="Shape" fill="#FFFFFF" sketch:type="MSShapeGroup"></path>
    </g>
</svg>